<?xml version="1.0" encoding="UTF-8" standalone="no"?>
<svg
   xmlns:dc="http://purl.org/dc/elements/1.1/"
   xmlns:cc="http://creativecommons.org/ns#"
   xmlns:rdf="http://www.w3.org/1999/02/22-rdf-syntax-ns#"
   xmlns:svg="http://www.w3.org/2000/svg"
   xmlns="http://www.w3.org/2000/svg"
   xmlns:xlink="http://www.w3.org/1999/xlink"
   viewBox="0 0 95.302669 94.562132"
   height="94.562134"
   width="95.302666"
   xml:space="preserve"
   id="svg2"
   version="1.1"><metadata
     id="metadata8"><rdf:RDF><cc:Work
         rdf:about=""><dc:format>image/svg+xml</dc:format><dc:type
           rdf:resource="http://purl.org/dc/dcmitype/StillImage" /><dc:title></dc:title></cc:Work></rdf:RDF></metadata><defs
     id="defs6"><clipPath
       id="clipPath30"
       clipPathUnits="userSpaceOnUse"><path
         id="path28"
         d="M 0,500.003 H 500.003 V 0 H 0 Z" /></clipPath><clipPath
       id="clipPath414"
       clipPathUnits="userSpaceOnUse"><path
         id="path412"
         d="m 211.567,490.858 h 77.161 v -33.894 h -77.161 z" /></clipPath><clipPath
       id="clipPath392"
       clipPathUnits="userSpaceOnUse"><path
         id="path390"
         d="M 0,500 H 500 V 0 H 0 Z" /></clipPath><clipPath
       id="clipPath404"
       clipPathUnits="userSpaceOnUse"><path
         id="path402"
         d="M 48.5122,427.243 H 76.271 V 399.015 H 48.5122 Z" /></clipPath><clipPath
       id="clipPath420"
       clipPathUnits="userSpaceOnUse"><path
         id="path418"
         d="M 51.5342,422.288 H 72.8228 V 402.047 H 51.5342 Z" /></clipPath><clipPath
       id="clipPath436"
       clipPathUnits="userSpaceOnUse"><path
         id="path434"
         d="M 61.9009,439.652 H 88.8652 V 407.491 H 61.9009 Z" /></clipPath><clipPath
       id="clipPath456"
       clipPathUnits="userSpaceOnUse"><path
         id="path454"
         d="m 68.074,439.682 c -11.501,0 -20.822,-9.321 -20.822,-20.822 v 0 c 0,-11.5 9.321,-20.822 20.822,-20.822 v 0 c 11.5,0 20.822,9.322 20.822,20.822 v 0 c 0,11.501 -9.321,20.823 -20.82,20.822 v 0 c 0,0 -0.002,0 -0.002,0" /></clipPath><linearGradient
       id="linearGradient468"
       spreadMethod="pad"
       gradientTransform="matrix(0,-43.162888,-43.162888,0,100.14233,394.85807)"
       gradientUnits="userSpaceOnUse"
       y2="0"
       x2="1"
       y1="0"
       x1="0"><stop
         id="stop462"
         offset="0"
         style="stop-opacity:1;stop-color:#f9ed32" /><stop
         id="stop464"
         offset="0.356781"
         style="stop-opacity:1;stop-color:#f9ed32" /><stop
         id="stop466"
         offset="1"
         style="stop-opacity:1;stop-color:#ebc53b" /></linearGradient><clipPath
       id="clipPath486"
       clipPathUnits="userSpaceOnUse"><path
         id="path484"
         d="m 51.5098,422.292 h 21.3203 v -20.27 H 51.5098 Z" /></clipPath><clipPath
       id="clipPath490"
       clipPathUnits="userSpaceOnUse"><path
         id="path488"
         d="m 59.15,410.494 c -3.725,3.518 -5.087,8.318 -4.451,11.798 -0.595,-0.249 -1.122,-0.602 -1.559,-1.067 -2.798,-2.961 -2.112,-10.155 2.973,-14.96 5.085,-4.805 12.644,-5.398 15.442,-2.438 0.759,0.803 1.172,1.853 1.275,3.052 -3.485,-1.465 -9.441,-0.388 -13.68,3.615" /></clipPath><mask
       id="mask506"
       height="1"
       width="1"
       y="0"
       x="0"
       maskUnits="userSpaceOnUse"><g
         id="g516"><g
           id="g514"
           clip-path="url(#clipPath494)"><g
             id="g512"><g
               id="g510"><path
                 id="path508"
                 style="fill:url(#linearGradient504);stroke:none"
                 d="M -32768,32767 H 32767 V -32767 H -32768 Z" /></g></g></g></g></mask><clipPath
       id="clipPath494"
       clipPathUnits="userSpaceOnUse"><path
         id="path492"
         d="M -32768,32767 H 32767 V -32767 H -32768 Z" /></clipPath><linearGradient
       id="linearGradient504"
       spreadMethod="pad"
       gradientTransform="matrix(-15.616928,-14.893799,-14.893799,15.616943,69.158691,419.02344)"
       gradientUnits="userSpaceOnUse"
       y2="0"
       x2="1"
       y1="0"
       x1="0"><stop
         id="stop496"
         offset="0"
         style="stop-opacity:0;stop-color:#ffffff" /><stop
         id="stop498"
         offset="0.485306"
         style="stop-opacity:0;stop-color:#ffffff" /><stop
         id="stop500"
         offset="0.843933"
         style="stop-opacity:0.73891814;stop-color:#ffffff" /><stop
         id="stop502"
         offset="1"
         style="stop-opacity:0.73891814;stop-color:#ffffff" /></linearGradient><linearGradient
       id="linearGradient526"
       spreadMethod="pad"
       gradientTransform="matrix(-15.616928,-14.893799,-14.893799,15.616943,101.22729,373.88932)"
       gradientUnits="userSpaceOnUse"
       y2="0"
       x2="1"
       y1="0"
       x1="0"><stop
         id="stop518"
         offset="0"
         style="stop-opacity:1;stop-color:#f17442" /><stop
         id="stop520"
         offset="0.485306"
         style="stop-opacity:1;stop-color:#f17442" /><stop
         id="stop522"
         offset="0.843933"
         style="stop-opacity:1;stop-color:#f3a74d" /><stop
         id="stop524"
         offset="1"
         style="stop-opacity:1;stop-color:#f3a74d" /></linearGradient><clipPath
       id="clipPath552"
       clipPathUnits="userSpaceOnUse"><path
         id="path550"
         d="M 61.8916,439.682 H 88.896 V 407.473 H 61.8916 Z" /></clipPath><clipPath
       id="clipPath572"
       clipPathUnits="userSpaceOnUse"><path
         id="path570"
         d="m 63.5166,445.968 h 9.1172 v -2.733 h -9.1172 z" /></clipPath><clipPath
       id="clipPath592"
       clipPathUnits="userSpaceOnUse"><path
         id="path590"
         d="m 63.5166,394.488 h 9.1172 v -2.734 h -9.1172 z" /></clipPath><clipPath
       id="clipPath612"
       clipPathUnits="userSpaceOnUse"><path
         id="path610"
         d="m 92.4468,423.418 h 2.7373 V 414.3 h -2.7373 z" /></clipPath><clipPath
       id="clipPath632"
       clipPathUnits="userSpaceOnUse"><path
         id="path630"
         d="m 40.9663,423.418 h 2.7324 V 414.3 h -2.7324 z" /></clipPath><clipPath
       id="clipPath652"
       clipPathUnits="userSpaceOnUse"><path
         id="path650"
         d="m 82.0854,440.286 h 7.4112 v -7.411 h -7.4112 z" /></clipPath><clipPath
       id="clipPath672"
       clipPathUnits="userSpaceOnUse"><path
         id="path670"
         d="m 46.6489,404.849 h 7.4156 v -7.416 h -7.4156 z" /></clipPath><clipPath
       id="clipPath692"
       clipPathUnits="userSpaceOnUse"><path
         id="path690"
         d="m 46.6489,440.286 h 7.4116 v -7.411 h -7.4116 z" /></clipPath><clipPath
       id="clipPath712"
       clipPathUnits="userSpaceOnUse"><path
         id="path710"
         d="m 82.0854,404.849 h 7.4112 v -7.416 h -7.4112 z" /></clipPath><clipPath
       id="clipPath732"
       clipPathUnits="userSpaceOnUse"><path
         id="path730"
         d="m 63.5166,445.968 h 9.1172 v -2.733 h -9.1172 z" /></clipPath><clipPath
       id="clipPath736"
       clipPathUnits="userSpaceOnUse"><path
         id="path734"
         d="m 72.634,443.235 c -1.478,0.277 -3.002,0.421 -4.561,0.421 -1.555,0 -3.08,-0.144 -4.556,-0.417 0.003,0.195 0.068,0.417 0.207,0.658 0.035,0.066 0.083,0.148 0.134,0.244 0.039,0.064 0.078,0.133 0.118,0.207 0.228,0.411 0.553,0.987 0.909,1.62 0.922,-0.581 2.014,-0.919 3.188,-0.919 1.174,0 2.265,0.338 3.193,0.919 0.116,-0.212 0.234,-0.416 0.342,-0.61 0.069,-0.122 0.134,-0.243 0.199,-0.356 0.277,-0.494 0.498,-0.887 0.619,-1.105 0.139,-0.241 0.204,-0.467 0.208,-0.662" /></clipPath><linearGradient
       id="linearGradient744"
       spreadMethod="pad"
       gradientTransform="matrix(0,-4.2695465,-4.2695465,0,100.1438,401.86686)"
       gradientUnits="userSpaceOnUse"
       y2="0"
       x2="1"
       y1="0"
       x1="0"><stop
         id="stop738"
         offset="0"
         style="stop-opacity:1;stop-color:#f9ed32" /><stop
         id="stop740"
         offset="0.356781"
         style="stop-opacity:1;stop-color:#f9ed32" /><stop
         id="stop742"
         offset="1"
         style="stop-opacity:1;stop-color:#ebc53b" /></linearGradient><clipPath
       id="clipPath770"
       clipPathUnits="userSpaceOnUse"><path
         id="path768"
         d="m 63.5166,394.488 h 9.1172 v -2.734 h -9.1172 z" /></clipPath><clipPath
       id="clipPath774"
       clipPathUnits="userSpaceOnUse"><path
         id="path772"
         d="m 72.634,394.488 c -0.004,-0.196 -0.069,-0.42 -0.208,-0.663 -0.034,-0.061 -0.074,-0.134 -0.121,-0.216 -0.022,-0.039 -0.048,-0.083 -0.069,-0.126 -0.04,-0.069 -0.082,-0.148 -0.126,-0.226 -0.021,-0.039 -0.048,-0.082 -0.07,-0.126 -0.064,-0.112 -0.128,-0.229 -0.199,-0.354 -0.073,-0.13 -0.151,-0.269 -0.233,-0.416 -0.052,-0.087 -0.1,-0.178 -0.151,-0.269 -0.036,-0.06 -0.071,-0.121 -0.101,-0.181 -0.031,-0.052 -0.06,-0.105 -0.09,-0.157 -0.928,0.577 -2.019,0.919 -3.193,0.919 -1.174,0 -2.266,-0.342 -3.188,-0.919 -0.031,0.052 -0.061,0.105 -0.091,0.157 -0.477,0.848 -0.893,1.585 -1.07,1.914 -0.139,0.243 -0.204,0.464 -0.207,0.659 1.476,-0.274 3.001,-0.416 4.556,-0.416 1.559,0 3.083,0.142 4.561,0.42" /></clipPath><linearGradient
       id="linearGradient782"
       spreadMethod="pad"
       gradientTransform="matrix(0,-4.2695465,-4.2695465,0,100.1438,350.38639)"
       gradientUnits="userSpaceOnUse"
       y2="0"
       x2="1"
       y1="0"
       x1="0"><stop
         id="stop776"
         offset="0"
         style="stop-opacity:1;stop-color:#f9ed32" /><stop
         id="stop778"
         offset="0.356781"
         style="stop-opacity:1;stop-color:#f9ed32" /><stop
         id="stop780"
         offset="1"
         style="stop-opacity:1;stop-color:#ebc53b" /></linearGradient><clipPath
       id="clipPath808"
       clipPathUnits="userSpaceOnUse"><path
         id="path806"
         d="m 92.4468,423.418 h 2.7373 V 414.3 h -2.7373 z" /></clipPath><clipPath
       id="clipPath812"
       clipPathUnits="userSpaceOnUse"><path
         id="path810"
         d="m 94.261,418.861 c 0,-1.174 0.343,-2.265 0.918,-3.193 -0.052,-0.03 -0.103,-0.059 -0.155,-0.09 -0.173,-0.095 -0.343,-0.191 -0.507,-0.282 -0.126,-0.069 -0.247,-0.138 -0.36,-0.204 -0.22,-0.125 -0.425,-0.238 -0.593,-0.333 -0.074,-0.038 -0.143,-0.078 -0.208,-0.116 -0.096,-0.053 -0.177,-0.1 -0.242,-0.135 -0.248,-0.138 -0.473,-0.203 -0.667,-0.208 0.277,1.477 0.419,3.002 0.419,4.561 0,1.56 -0.142,3.08 -0.415,4.557 0.195,-0.004 0.415,-0.069 0.663,-0.208 0.216,-0.121 0.61,-0.342 1.103,-0.62 0.114,-0.064 0.235,-0.129 0.356,-0.198 0.195,-0.108 0.398,-0.225 0.611,-0.342 -0.58,-0.924 -0.923,-2.014 -0.923,-3.189" /></clipPath><linearGradient
       id="linearGradient820"
       spreadMethod="pad"
       gradientTransform="matrix(0,-14.242477,-14.242477,0,125.88403,381.72916)"
       gradientUnits="userSpaceOnUse"
       y2="0"
       x2="1"
       y1="0"
       x1="0"><stop
         id="stop814"
         offset="0"
         style="stop-opacity:1;stop-color:#f9ed32" /><stop
         id="stop816"
         offset="0.356781"
         style="stop-opacity:1;stop-color:#f9ed32" /><stop
         id="stop818"
         offset="1"
         style="stop-opacity:1;stop-color:#ebc53b" /></linearGradient><clipPath
       id="clipPath846"
       clipPathUnits="userSpaceOnUse"><path
         id="path844"
         d="m 40.9663,423.418 h 2.7324 V 414.3 h -2.7324 z" /></clipPath><clipPath
       id="clipPath850"
       clipPathUnits="userSpaceOnUse"><path
         id="path848"
         d="m 43.699,414.3 c -0.195,0.005 -0.42,0.07 -0.662,0.208 -0.065,0.035 -0.148,0.082 -0.244,0.135 -0.059,0.034 -0.134,0.073 -0.208,0.116 -0.068,0.039 -0.142,0.078 -0.22,0.126 -0.048,0.026 -0.099,0.057 -0.152,0.082 -0.359,0.203 -0.788,0.442 -1.247,0.701 0.58,0.928 0.918,2.019 0.918,3.193 0,1.175 -0.338,2.265 -0.918,3.189 0.213,0.116 0.416,0.233 0.611,0.342 0.125,0.068 0.242,0.134 0.355,0.198 0.147,0.083 0.286,0.161 0.416,0.235 0.044,0.021 0.082,0.047 0.125,0.069 0.239,0.134 0.433,0.242 0.564,0.316 0.242,0.139 0.463,0.204 0.658,0.208 -0.273,-1.477 -0.416,-2.997 -0.416,-4.557 0,-1.559 0.143,-3.084 0.42,-4.561" /></clipPath><linearGradient
       id="linearGradient858"
       spreadMethod="pad"
       gradientTransform="matrix(0,-14.242477,-14.242477,0,74.40112,381.72916)"
       gradientUnits="userSpaceOnUse"
       y2="0"
       x2="1"
       y1="0"
       x1="0"><stop
         id="stop852"
         offset="0"
         style="stop-opacity:1;stop-color:#f9ed32" /><stop
         id="stop854"
         offset="0.356781"
         style="stop-opacity:1;stop-color:#f9ed32" /><stop
         id="stop856"
         offset="1"
         style="stop-opacity:1;stop-color:#ebc53b" /></linearGradient><clipPath
       id="clipPath884"
       clipPathUnits="userSpaceOnUse"><path
         id="path882"
         d="m 82.0854,440.286 h 7.4112 v -7.411 h -7.4112 z" /></clipPath><clipPath
       id="clipPath888"
       clipPathUnits="userSpaceOnUse"><path
         id="path886"
         d="m 89.497,435.772 c -0.282,-1.014 -0.533,-1.901 -0.641,-2.283 -0.078,-0.269 -0.186,-0.472 -0.33,-0.614 -1.727,2.524 -3.916,4.712 -6.441,6.44 0.144,0.139 0.347,0.247 0.616,0.325 0.048,0.013 0.103,0.03 0.169,0.047 0.06,0.018 0.134,0.035 0.207,0.057 0.373,0.108 0.892,0.256 1.482,0.421 0.138,0.038 0.281,0.081 0.425,0.121 v -0.005 c 0.246,-1.066 0.778,-2.074 1.606,-2.903 0.831,-0.831 1.845,-1.359 2.907,-1.606" /></clipPath><linearGradient
       id="linearGradient896"
       spreadMethod="pad"
       gradientTransform="matrix(0,-11.576111,-11.576111,0,117.85962,397.95133)"
       gradientUnits="userSpaceOnUse"
       y2="0"
       x2="1"
       y1="0"
       x1="0"><stop
         id="stop890"
         offset="0"
         style="stop-opacity:1;stop-color:#f9ed32" /><stop
         id="stop892"
         offset="0.356781"
         style="stop-opacity:1;stop-color:#f9ed32" /><stop
         id="stop894"
         offset="1"
         style="stop-opacity:1;stop-color:#ebc53b" /></linearGradient><clipPath
       id="clipPath922"
       clipPathUnits="userSpaceOnUse"><path
         id="path920"
         d="m 46.6489,404.849 h 7.4156 v -7.416 h -7.4156 z" /></clipPath><clipPath
       id="clipPath926"
       clipPathUnits="userSpaceOnUse"><path
         id="path924"
         d="m 54.064,398.403 c -0.137,-0.134 -0.341,-0.246 -0.614,-0.324 -0.1,-0.026 -0.23,-0.066 -0.39,-0.114 -0.073,-0.015 -0.152,-0.038 -0.238,-0.064 -0.177,-0.048 -0.378,-0.104 -0.594,-0.165 -0.108,-0.03 -0.222,-0.065 -0.338,-0.095 -0.229,-0.069 -0.476,-0.139 -0.727,-0.208 -0.248,1.066 -0.776,2.079 -1.607,2.911 -0.828,0.827 -1.841,1.361 -2.907,1.603 0.048,0.165 0.092,0.321 0.134,0.475 0.108,0.387 0.208,0.746 0.294,1.049 0.092,0.329 0.17,0.594 0.217,0.763 0.079,0.267 0.186,0.472 0.325,0.615 1.734,-2.525 3.92,-4.713 6.445,-6.446" /></clipPath><linearGradient
       id="linearGradient934"
       spreadMethod="pad"
       gradientTransform="matrix(0,-11.58374,-11.58374,0,82.42553,362.51676)"
       gradientUnits="userSpaceOnUse"
       y2="0"
       x2="1"
       y1="0"
       x1="0"><stop
         id="stop928"
         offset="0"
         style="stop-opacity:1;stop-color:#f9ed32" /><stop
         id="stop930"
         offset="0.356781"
         style="stop-opacity:1;stop-color:#f9ed32" /><stop
         id="stop932"
         offset="1"
         style="stop-opacity:1;stop-color:#ebc53b" /></linearGradient><clipPath
       id="clipPath960"
       clipPathUnits="userSpaceOnUse"><path
         id="path958"
         d="m 46.6489,440.286 h 7.4116 v -7.411 h -7.4116 z" /></clipPath><clipPath
       id="clipPath964"
       clipPathUnits="userSpaceOnUse"><path
         id="path962"
         d="m 54.061,439.315 c -2.526,-1.728 -4.714,-3.916 -6.442,-6.44 -0.142,0.142 -0.252,0.345 -0.328,0.614 -0.075,0.26 -0.214,0.762 -0.386,1.378 -0.044,0.151 -0.088,0.311 -0.139,0.48 -0.035,0.139 -0.078,0.281 -0.117,0.425 1.066,0.247 2.079,0.775 2.907,1.606 0.831,0.829 1.359,1.841 1.607,2.908 0.142,-0.04 0.285,-0.083 0.424,-0.121 0.831,-0.235 1.533,-0.434 1.859,-0.525 0.267,-0.078 0.471,-0.186 0.615,-0.325" /></clipPath><linearGradient
       id="linearGradient972"
       spreadMethod="pad"
       gradientTransform="matrix(0,-11.576111,-11.576111,0,82.42358,397.95133)"
       gradientUnits="userSpaceOnUse"
       y2="0"
       x2="1"
       y1="0"
       x1="0"><stop
         id="stop966"
         offset="0"
         style="stop-opacity:1;stop-color:#f9ed32" /><stop
         id="stop968"
         offset="0.356781"
         style="stop-opacity:1;stop-color:#f9ed32" /><stop
         id="stop970"
         offset="1"
         style="stop-opacity:1;stop-color:#ebc53b" /></linearGradient><clipPath
       id="clipPath998"
       clipPathUnits="userSpaceOnUse"><path
         id="path996"
         d="m 82.0854,404.849 h 7.4112 v -7.416 h -7.4112 z" /></clipPath><clipPath
       id="clipPath1002"
       clipPathUnits="userSpaceOnUse"><path
         id="path1000"
         d="m 89.497,401.947 c -1.067,-0.242 -2.076,-0.776 -2.907,-1.603 -0.828,-0.832 -1.36,-1.842 -1.606,-2.906 v -0.005 c -0.144,0.039 -0.287,0.083 -0.425,0.121 -0.542,0.152 -1.023,0.291 -1.386,0.39 -0.074,0.021 -0.144,0.044 -0.203,0.056 -0.109,0.031 -0.197,0.057 -0.269,0.079 -0.269,0.078 -0.472,0.186 -0.616,0.33 2.525,1.727 4.714,3.915 6.441,6.44 0.144,-0.143 0.252,-0.347 0.33,-0.615 0.108,-0.386 0.359,-1.275 0.641,-2.287" /></clipPath><linearGradient
       id="linearGradient1010"
       spreadMethod="pad"
       gradientTransform="matrix(0,-11.58374,-11.58374,0,117.85962,362.51676)"
       gradientUnits="userSpaceOnUse"
       y2="0"
       x2="1"
       y1="0"
       x1="0"><stop
         id="stop1004"
         offset="0"
         style="stop-opacity:1;stop-color:#f9ed32" /><stop
         id="stop1006"
         offset="0.356781"
         style="stop-opacity:1;stop-color:#f9ed32" /><stop
         id="stop1008"
         offset="1"
         style="stop-opacity:1;stop-color:#ebc53b" /></linearGradient><clipPath
       id="clipPath32"
       clipPathUnits="userSpaceOnUse"><path
         id="path30"
         d="M 0,500 H 500 V 0 H 0 Z" /></clipPath><clipPath
       id="clipPath44"
       clipPathUnits="userSpaceOnUse"><path
         id="path42"
         d="m 142.96,426.025 c -0.456,0.039 -0.915,0.064 -1.379,0.064 v 0 c -8.536,0 -15.457,-6.919 -15.457,-15.456 v 0 c 0,-8.536 6.921,-15.457 15.457,-15.457 v 0 h 37.656 c 6.391,0 11.571,5.181 11.571,11.572 v 0 c 0,6.392 -5.18,11.572 -11.571,11.572 v 0 c -0.058,0 -0.115,-0.005 -0.17,-0.005 v 0 c 0.108,0.813 0.17,1.641 0.17,2.484 v 0 c 0,10.226 -8.29,18.515 -18.516,18.515 v 0 c -8.409,0 -15.505,-5.609 -17.761,-13.289" /></clipPath><linearGradient
       id="linearGradient56"
       spreadMethod="pad"
       gradientTransform="matrix(0,-45.62558,-45.62558,0,278.95961,384.74429)"
       gradientUnits="userSpaceOnUse"
       y2="0"
       x2="1"
       y1="0"
       x1="0"><stop
         id="stop50"
         offset="0"
         style="stop-opacity:1;stop-color:#e6e7e8" /><stop
         id="stop52"
         offset="0.47392916"
         style="stop-opacity:1;stop-color:#d1d3d4" /><stop
         id="stop54"
         offset="1"
         style="stop-opacity:1;stop-color:#d1d3d4" /></linearGradient><clipPath
       id="clipPath86"
       clipPathUnits="userSpaceOnUse"><path
         id="path84"
         d="m 127.105,415.502 h 59.526 v -20.326 h -59.526 z" /></clipPath><clipPath
       id="clipPath90"
       clipPathUnits="userSpaceOnUse"><path
         id="path88"
         d="m 143.381,397.12 c -10.163,0 -15.454,8.224 -15.481,18.382 -0.509,-1.533 -0.795,-3.166 -0.795,-4.869 0,-8.537 6.921,-15.457 15.457,-15.457 h 37.656 c 2.373,0 4.578,0.717 6.413,1.943 z" /></clipPath><mask
       id="mask106"
       height="1"
       width="1"
       y="0"
       x="0"
       maskUnits="userSpaceOnUse"><g
         id="g116"><g
           id="g114"
           clip-path="url(#clipPath94)"><g
             id="g112"><g
               id="g110"><path
                 id="path108"
                 style="fill:url(#linearGradient104);stroke:none"
                 d="M -32768,32767 H 32767 V -32767 H -32768 Z" /></g></g></g></g></mask><clipPath
       id="clipPath94"
       clipPathUnits="userSpaceOnUse"><path
         id="path92"
         d="M -32768,32767 H 32767 V -32767 H -32768 Z" /></clipPath><linearGradient
       id="linearGradient104"
       spreadMethod="pad"
       gradientTransform="matrix(59.525879,0,0,-59.525879,127.10547,405.33936)"
       gradientUnits="userSpaceOnUse"
       y2="0"
       x2="1"
       y1="0"
       x1="0"><stop
         id="stop96"
         offset="0"
         style="stop-opacity:0.50000763;stop-color:#ffffff" /><stop
         id="stop98"
         offset="0.206894"
         style="stop-opacity:0.50000763;stop-color:#ffffff" /><stop
         id="stop100"
         offset="0.58277006"
         style="stop-opacity:1;stop-color:#ffffff" /><stop
         id="stop102"
         offset="1"
         style="stop-opacity:1;stop-color:#ffffff" /></linearGradient><linearGradient
       id="linearGradient126"
       spreadMethod="pad"
       gradientTransform="matrix(59.525879,0,0,-59.525879,247.59877,350.02554)"
       gradientUnits="userSpaceOnUse"
       y2="0"
       x2="1"
       y1="0"
       x1="0"><stop
         id="stop118"
         offset="0"
         style="stop-opacity:1;stop-color:#808285" /><stop
         id="stop120"
         offset="0.206894"
         style="stop-opacity:1;stop-color:#808285" /><stop
         id="stop122"
         offset="0.58277006"
         style="stop-opacity:1;stop-color:#d1d3d4" /><stop
         id="stop124"
         offset="1"
         style="stop-opacity:1;stop-color:#d1d3d4" /></linearGradient><clipPath
       id="clipPath160"
       clipPathUnits="userSpaceOnUse"><path
         id="path158"
         d="m 235.793,428.643 c -0.439,0.039 -0.882,0.063 -1.33,0.063 v 0 c -8.237,0 -14.912,-6.676 -14.912,-14.911 v 0 c 0,-8.236 6.675,-14.911 14.912,-14.911 v 0 h 36.327 c 6.164,0 11.161,4.997 11.161,11.162 v 0 c 0,6.166 -4.997,11.165 -11.161,11.165 v 0 c -0.057,0 -0.111,-0.005 -0.166,-0.005 v 0 c 0.104,0.785 0.166,1.582 0.166,2.396 v 0 c 0,9.864 -7.999,17.862 -17.862,17.862 v 0 c -8.114,0 -14.96,-5.412 -17.135,-12.821" /></clipPath><linearGradient
       id="linearGradient172"
       spreadMethod="pad"
       gradientTransform="matrix(0,-44.014435,-44.014435,0,466.51438,387.43133)"
       gradientUnits="userSpaceOnUse"
       y2="0"
       x2="1"
       y1="0"
       x1="0"><stop
         id="stop166"
         offset="0"
         style="stop-opacity:1;stop-color:#e6e7e8" /><stop
         id="stop168"
         offset="0.47392916"
         style="stop-opacity:1;stop-color:#d1d3d4" /><stop
         id="stop170"
         offset="1"
         style="stop-opacity:1;stop-color:#d1d3d4" /></linearGradient><clipPath
       id="clipPath182"
       clipPathUnits="userSpaceOnUse"><path
         id="path180"
         d="m 235.793,428.643 c -0.439,0.039 -0.882,0.063 -1.33,0.063 v 0 c -8.237,0 -14.912,-6.676 -14.912,-14.911 v 0 c 0,-8.236 6.675,-14.911 14.912,-14.911 v 0 h 36.327 c 6.164,0 11.161,4.997 11.161,11.162 v 0 c 0,6.166 -4.997,11.165 -11.161,11.165 v 0 c -0.057,0 -0.111,-0.005 -0.166,-0.005 v 0 c 0.104,0.785 0.166,1.582 0.166,2.396 v 0 c 0,9.864 -7.999,17.862 -17.862,17.862 v 0 c -8.114,0 -14.96,-5.412 -17.135,-12.821" /></clipPath><clipPath
       id="clipPath204"
       clipPathUnits="userSpaceOnUse"><path
         id="path202"
         d="M 0,500 H 500 V 0 H 0 Z" /></clipPath><clipPath
       id="clipPath224"
       clipPathUnits="userSpaceOnUse"><path
         id="path222"
         d="m 219.551,418.492 h 57.427 v -19.608 h -57.427 z" /></clipPath><clipPath
       id="clipPath228"
       clipPathUnits="userSpaceOnUse"><path
         id="path226"
         d="m 235.252,400.757 c -9.805,0 -14.909,7.936 -14.934,17.735 -0.492,-1.478 -0.767,-3.054 -0.767,-4.698 0,-8.235 6.675,-14.91 14.911,-14.91 h 36.328 c 2.287,0 4.413,0.692 6.188,1.873 z" /></clipPath><mask
       id="mask244"
       height="1"
       width="1"
       y="0"
       x="0"
       maskUnits="userSpaceOnUse"><g
         id="g254"><g
           id="g252"
           clip-path="url(#clipPath232)"><g
             id="g250"><g
               id="g248"><path
                 id="path246"
                 style="fill:url(#linearGradient242);stroke:none"
                 d="M -32768,32767 H 32767 V -32767 H -32768 Z" /></g></g></g></g></mask><clipPath
       id="clipPath232"
       clipPathUnits="userSpaceOnUse"><path
         id="path230"
         d="M -32768,32767 H 32767 V -32767 H -32768 Z" /></clipPath><linearGradient
       id="linearGradient242"
       spreadMethod="pad"
       gradientTransform="matrix(57.426269,0,0,-57.426269,219.55127,408.68799)"
       gradientUnits="userSpaceOnUse"
       y2="0"
       x2="1"
       y1="0"
       x1="0"><stop
         id="stop234"
         offset="0"
         style="stop-opacity:0.50000763;stop-color:#ffffff" /><stop
         id="stop236"
         offset="0.206894"
         style="stop-opacity:0.50000763;stop-color:#ffffff" /><stop
         id="stop238"
         offset="0.58277006"
         style="stop-opacity:1;stop-color:#ffffff" /><stop
         id="stop240"
         offset="1"
         style="stop-opacity:1;stop-color:#ffffff" /></linearGradient><linearGradient
       id="linearGradient264"
       spreadMethod="pad"
       gradientTransform="matrix(57.426269,0,0,-57.426269,434.56466,354.68817)"
       gradientUnits="userSpaceOnUse"
       y2="0"
       x2="1"
       y1="0"
       x1="0"><stop
         id="stop256"
         offset="0"
         style="stop-opacity:1;stop-color:#808285" /><stop
         id="stop258"
         offset="0.206894"
         style="stop-opacity:1;stop-color:#808285" /><stop
         id="stop260"
         offset="0.58277006"
         style="stop-opacity:1;stop-color:#d1d3d4" /><stop
         id="stop262"
         offset="1"
         style="stop-opacity:1;stop-color:#d1d3d4" /></linearGradient><clipPath
       id="clipPath314"
       clipPathUnits="userSpaceOnUse"><path
         id="path312"
         d="m 247.693,383.991 c 0.161,-3.336 2.795,-5.408 6.578,-3.844 v 0 c 3.78,1.563 4.182,4.891 1.937,7.365 v 0 c -2.881,3.18 -7.751,6.684 -7.751,6.684 v 0 c 0,0 -0.968,-5.917 -0.764,-10.205" /></clipPath><linearGradient
       id="linearGradient330"
       spreadMethod="pad"
       gradientTransform="matrix(8.3180847,-20.113663,-20.116776,-8.3149719,463.15499,340.96258)"
       gradientUnits="userSpaceOnUse"
       y2="0"
       x2="1"
       y1="0"
       x1="0"><stop
         id="stop320"
         offset="0"
         style="stop-opacity:1;stop-color:#27aae1" /><stop
         id="stop322"
         offset="0.237625"
         style="stop-opacity:1;stop-color:#27aae1" /><stop
         id="stop324"
         offset="0.54007"
         style="stop-opacity:1;stop-color:#297ec1" /><stop
         id="stop326"
         offset="0.710724"
         style="stop-opacity:1;stop-color:#2974ba" /><stop
         id="stop328"
         offset="1"
         style="stop-opacity:1;stop-color:#2974ba" /></linearGradient><clipPath
       id="clipPath340"
       clipPathUnits="userSpaceOnUse"><path
         id="path338"
         d="m 261.6,383.991 c 0.16,-3.336 2.797,-5.408 6.575,-3.844 v 0 c 3.782,1.563 4.187,4.891 1.942,7.365 v 0 c -2.882,3.18 -7.752,6.687 -7.752,6.687 v 0 c 0,0 -0.968,-5.921 -0.765,-10.208" /></clipPath><linearGradient
       id="linearGradient356"
       spreadMethod="pad"
       gradientTransform="matrix(8.3182678,-20.114121,-20.117233,-8.315155,477.06222,340.96454)"
       gradientUnits="userSpaceOnUse"
       y2="0"
       x2="1"
       y1="0"
       x1="0"><stop
         id="stop346"
         offset="0"
         style="stop-opacity:1;stop-color:#27aae1" /><stop
         id="stop348"
         offset="0.237625"
         style="stop-opacity:1;stop-color:#27aae1" /><stop
         id="stop350"
         offset="0.54007"
         style="stop-opacity:1;stop-color:#297ec1" /><stop
         id="stop352"
         offset="0.710724"
         style="stop-opacity:1;stop-color:#2974ba" /><stop
         id="stop354"
         offset="1"
         style="stop-opacity:1;stop-color:#2974ba" /></linearGradient><clipPath
       id="clipPath366"
       clipPathUnits="userSpaceOnUse"><path
         id="path364"
         d="m 234.032,383.991 c 0.156,-3.336 2.796,-5.408 6.572,-3.844 v 0 c 3.785,1.563 4.187,4.891 1.942,7.365 v 0 c -2.882,3.18 -7.752,6.687 -7.752,6.687 v 0 c 0,0 -0.967,-5.921 -0.762,-10.208" /></clipPath><linearGradient
       id="linearGradient382"
       spreadMethod="pad"
       gradientTransform="matrix(8.3182678,-20.114121,-20.117233,-8.315155,449.49191,340.96454)"
       gradientUnits="userSpaceOnUse"
       y2="0"
       x2="1"
       y1="0"
       x1="0"><stop
         id="stop372"
         offset="0"
         style="stop-opacity:1;stop-color:#27aae1" /><stop
         id="stop374"
         offset="0.237625"
         style="stop-opacity:1;stop-color:#27aae1" /><stop
         id="stop376"
         offset="0.54007"
         style="stop-opacity:1;stop-color:#297ec1" /><stop
         id="stop378"
         offset="0.710724"
         style="stop-opacity:1;stop-color:#2974ba" /><stop
         id="stop380"
         offset="1"
         style="stop-opacity:1;stop-color:#2974ba" /></linearGradient><linearGradient
       spreadMethod="pad"
       y2="0"
       x2="1"
       y1="0"
       x1="0"
       gradientTransform="matrix(0,-44.014435,-44.014435,0,465.76437,388.18133)"
       gradientUnits="userSpaceOnUse"
       id="linearGradient4424"
       xlink:href="#linearGradient172" /><linearGradient
       spreadMethod="pad"
       y2="0"
       x2="1"
       y1="0"
       x1="0"
       gradientTransform="matrix(0,-44.014435,-44.014435,0,465.76437,388.18133)"
       gradientUnits="userSpaceOnUse"
       id="linearGradient4426"
       xlink:href="#linearGradient172" /></defs><g
     transform="matrix(1.3333333,0,0,-1.3333333,-388.56397,576.38558)"
     id="g10"><g
       id="g5965"
       transform="translate(76.409587,-13.711001)"><g
         id="g146"
         transform="translate(270.79,421.2104)"><path
           d="M 0,0 C -0.057,0 -0.111,-0.004 -0.166,-0.004 -0.062,0.78 0,1.578 0,2.392 c 0,9.864 -7.999,17.861 -17.862,17.861 -8.114,0 -14.96,-5.411 -17.136,-12.82 -0.438,0.039 -0.881,0.062 -1.33,0.062 -8.236,0 -14.911,-6.676 -14.911,-14.911 0,-8.235 6.675,-14.91 14.911,-14.91 H 0 c 6.164,0 11.161,4.997 11.161,11.162 C 11.161,-4.998 6.164,0 0,0"
           style="fill:#ffffff;fill-opacity:1;fill-rule:nonzero;stroke:none"
           id="path148" /></g><g
         id="g150"
         transform="translate(234.4624,395.0962)"><path
           d="m 0,0 c -10.31,0 -18.699,8.389 -18.699,18.698 0,9.876 7.697,17.989 17.408,18.655 3.446,7.661 11.198,12.801 19.756,12.801 11.63,0 21.149,-9.219 21.629,-20.734 C 46.52,27.745 51.278,21.894 51.278,14.95 51.278,6.707 44.57,0 36.328,0 Z"
           style="fill:#ffffff;fill-opacity:1;fill-rule:nonzero;stroke:none"
           id="path152" /></g><g
         id="g154"><g
           id="g156"
           clip-path="url(#clipPath160)"><g
             id="g162"><g
               id="g164"><path
                 d="m 235.793,428.643 c -0.439,0.039 -0.882,0.063 -1.33,0.063 v 0 c -8.237,0 -14.912,-6.676 -14.912,-14.911 v 0 c 0,-8.236 6.675,-14.911 14.912,-14.911 v 0 h 36.327 c 6.164,0 11.161,4.997 11.161,11.162 v 0 c 0,6.166 -4.997,11.165 -11.161,11.165 v 0 c -0.057,0 -0.111,-0.005 -0.166,-0.005 v 0 c 0.104,0.785 0.166,1.582 0.166,2.396 v 0 c 0,9.864 -7.999,17.862 -17.862,17.862 v 0 c -8.114,0 -14.96,-5.412 -17.135,-12.821"
                 style="fill:url(#linearGradient4424);stroke:none"
                 id="path174" /></g></g></g></g><g
         id="g176"><g
           id="g178"
           clip-path="url(#clipPath182)"><g
             id="g184"><g
               id="g186"><path
                 d="m 235.793,428.643 c -0.439,0.039 -0.882,0.063 -1.33,0.063 v 0 c -8.237,0 -14.912,-6.676 -14.912,-14.911 v 0 c 0,-8.236 6.675,-14.911 14.912,-14.911 v 0 h 36.327 c 6.164,0 11.161,4.997 11.161,11.162 v 0 c 0,6.166 -4.997,11.165 -11.161,11.165 v 0 c -0.057,0 -0.111,-0.005 -0.166,-0.005 v 0 c 0.104,0.785 0.166,1.582 0.166,2.396 v 0 c 0,9.864 -7.999,17.862 -17.862,17.862 v 0 c -8.114,0 -14.96,-5.412 -17.135,-12.821"
                 style="fill:url(#linearGradient4426);stroke:none"
                 id="path196" /></g></g></g></g><g
         id="g198"><g
           id="g200"
           clip-path="url(#clipPath204)"><g
             id="g206"
             transform="translate(279.3701,413.2212)"><path
               d="M 0,0 C -0.159,0.336 -0.325,0.656 -0.518,0.968 -0.317,0.661 -0.145,0.341 0,0"
               style="fill:#808285;fill-opacity:1;fill-rule:nonzero;stroke:none"
               id="path208" /></g><g
             id="g210"
             transform="translate(253.542,439.2622)"><path
               d="m 0,0 c 0,0 10.438,-0.216 13.539,-10.965 0,0 -2.281,4.308 -5.737,7.106 C 4.348,-1.062 0,0 0,0"
               style="fill:#ffffff;fill-opacity:1;fill-rule:nonzero;stroke:none"
               id="path212" /></g><g
             id="g214"
             transform="translate(234.1118,427.0229)"><path
               d="m 0,0 c 0,0 -7.993,-0.401 -10.404,-6.85 0,0 4.133,5.473 10.404,6.85"
               style="fill:#ffffff;fill-opacity:1;fill-rule:nonzero;stroke:none"
               id="path216" /></g><g
             id="g218"><g
               id="g220" /><g
               id="g282"><g
                 clip-path="url(#clipPath224)"
                 id="g280"
                 style="opacity:0.30000299"><g
                   id="g278"><g
                     clip-path="url(#clipPath228)"
                     id="g276"><g
                       id="g274"><g
                         id="g266" /><g
                         mask="url(#mask244)"
                         id="g272"><g
                           id="g270"><path
                             d="m 235.252,400.757 c -9.805,0 -14.909,7.936 -14.934,17.735 -0.492,-1.478 -0.767,-3.054 -0.767,-4.698 0,-8.235 6.675,-14.91 14.911,-14.91 h 36.328 c 2.287,0 4.413,0.692 6.188,1.873 z"
                             style="fill:url(#linearGradient264);stroke:none"
                             id="path268" /></g></g></g></g></g></g></g></g><g
             id="g284"
             transform="translate(251.8311,375.8296)"><path
               d="m 0,0 c -4.367,0 -7.699,3.356 -7.921,7.98 -0.219,4.634 0.766,10.741 0.808,10.999 0.213,1.294 1.078,2.387 2.291,2.888 0.466,0.194 0.958,0.288 1.448,0.288 0.782,0 1.56,-0.242 2.213,-0.714 0.213,-0.152 5.229,-3.778 8.346,-7.214 C 9.141,12.07 9.932,9.366 9.358,6.81 8.764,4.158 6.818,2.031 3.887,0.818 2.573,0.274 1.266,0 0.002,0 Z"
               style="fill:#ffffff;fill-opacity:1;fill-rule:nonzero;stroke:none"
               id="path286" /></g><g
             id="g288"
             transform="translate(256.208,387.5122)"><path
               d="m 0,0 c -2.882,3.18 -7.751,6.685 -7.751,6.685 0,0 -0.968,-5.918 -0.765,-10.206 0.162,-3.336 2.796,-5.408 6.578,-3.844 C 1.843,-5.803 2.245,-2.475 0,0"
               style="fill:#ffffff;fill-opacity:1;fill-rule:nonzero;stroke:none"
               id="path290" /></g><g
             id="g292"
             transform="translate(265.7393,375.8286)"><path
               d="m 0,0 c -4.371,0.001 -7.701,3.358 -7.921,7.984 -0.221,4.63 0.767,10.739 0.808,10.996 0.214,1.294 1.078,2.387 2.289,2.889 0.468,0.193 0.961,0.287 1.45,0.287 0.78,0 1.558,-0.241 2.213,-0.714 C -0.949,21.29 4.068,17.664 7.184,14.229 9.139,12.071 9.933,9.367 9.358,6.811 8.761,4.159 6.817,2.031 3.883,0.818 2.57,0.275 1.264,0 0,0"
               style="fill:#ffffff;fill-opacity:1;fill-rule:nonzero;stroke:none"
               id="path294" /></g><g
             id="g296"
             transform="translate(270.1172,387.5122)"><path
               d="m 0,0 c -2.882,3.18 -7.752,6.687 -7.752,6.687 0,0 -0.969,-5.921 -0.765,-10.208 0.16,-3.336 2.797,-5.408 6.575,-3.844 C 1.84,-5.803 2.245,-2.475 0,0"
               style="fill:#ffffff;fill-opacity:1;fill-rule:nonzero;stroke:none"
               id="path298" /></g><g
             id="g300"
             transform="translate(238.1714,375.8286)"><path
               d="m 0,0 c -4.373,0.001 -7.704,3.358 -7.923,7.984 -0.222,4.63 0.766,10.739 0.808,10.996 0.213,1.294 1.077,2.387 2.291,2.889 0.466,0.193 0.958,0.287 1.447,0.287 0.783,0 1.558,-0.241 2.214,-0.714 C -0.952,21.29 4.066,17.664 7.182,14.229 9.138,12.071 9.93,9.367 9.356,6.811 8.76,4.159 6.816,2.031 3.88,0.818 2.569,0.275 1.263,0 0,0"
               style="fill:#ffffff;fill-opacity:1;fill-rule:nonzero;stroke:none"
               id="path302" /></g><g
             id="g304"
             transform="translate(242.5464,387.5122)"><path
               d="m 0,0 c -2.882,3.18 -7.752,6.687 -7.752,6.687 0,0 -0.967,-5.921 -0.762,-10.208 0.156,-3.336 2.796,-5.408 6.572,-3.844 C 1.842,-5.803 2.245,-2.475 0,0"
               style="fill:#ffffff;fill-opacity:1;fill-rule:nonzero;stroke:none"
               id="path306" /></g></g></g><g
         id="g308"><g
           id="g310"
           clip-path="url(#clipPath314)"><g
             id="g316"><g
               id="g318"><path
                 d="m 247.693,383.991 c 0.161,-3.336 2.795,-5.408 6.578,-3.844 v 0 c 3.78,1.563 4.182,4.891 1.937,7.365 v 0 c -2.881,3.18 -7.751,6.684 -7.751,6.684 v 0 c 0,0 -0.968,-5.917 -0.764,-10.205"
                 style="fill:url(#linearGradient330);stroke:none"
                 id="path332" /></g></g></g></g><g
         id="g334"><g
           id="g336"
           clip-path="url(#clipPath340)"><g
             id="g342"><g
               id="g344"><path
                 d="m 261.6,383.991 c 0.16,-3.336 2.797,-5.408 6.575,-3.844 v 0 c 3.782,1.563 4.187,4.891 1.942,7.365 v 0 c -2.882,3.18 -7.752,6.687 -7.752,6.687 v 0 c 0,0 -0.968,-5.921 -0.765,-10.208"
                 style="fill:url(#linearGradient356);stroke:none"
                 id="path358" /></g></g></g></g><g
         id="g360"><g
           id="g362"
           clip-path="url(#clipPath366)"><g
             id="g368"><g
               id="g370"><path
                 d="m 234.032,383.991 c 0.156,-3.336 2.796,-5.408 6.572,-3.844 v 0 c 3.785,1.563 4.187,4.891 1.942,7.365 v 0 c -2.882,3.18 -7.752,6.687 -7.752,6.687 v 0 c 0,0 -0.967,-5.921 -0.762,-10.208"
                 style="fill:url(#linearGradient382);stroke:none"
                 id="path384" /></g></g></g></g></g></g></svg>