<?xml version="1.0" encoding="UTF-8"?>
<!DOCTYPE svg PUBLIC "-//W3C//DTD SVG 1.1//EN" "http://www.w3.org/Graphics/SVG/1.1/DTD/svg11.dtd">
<svg xmlns="http://www.w3.org/2000/svg" version="1.1" width="1543px" height="611px" style="shape-rendering:geometricPrecision; text-rendering:geometricPrecision; image-rendering:optimizeQuality; fill-rule:evenodd; clip-rule:evenodd" xmlns:xlink="http://www.w3.org/1999/xlink">
<g><path style="opacity:0.951" fill="#221e1f" d="M 295.5,55.5 C 293.786,56.7384 291.786,57.405 289.5,57.5C 286.706,47.9918 284.706,38.3251 283.5,28.5C 285.467,28.2606 287.301,28.5939 289,29.5C 291.171,38.1849 293.338,46.8516 295.5,55.5 Z"/></g>
<g><path style="opacity:0.996" fill="#2a58fe" d="M 368.5,336.5 C 366.619,338.93 365.285,341.596 364.5,344.5C 330.202,317.102 292.869,312.268 252.5,330C 228.183,343.489 211.183,363.322 201.5,389.5C 164.597,360.314 125.263,356.481 83.5,378C 71.0777,385.922 60.4111,395.755 51.5,407.5C 41.924,298.361 76.5907,206.194 155.5,131C 194.402,96.3745 239.069,71.8745 289.5,57.5C 291.786,57.405 293.786,56.7384 295.5,55.5C 408.696,31.0485 509.029,56.2151 596.5,131C 631.048,163.1 657.715,200.767 676.5,244C 676.333,244.5 676.167,245 676,245.5C 639.884,225.137 604.05,225.637 568.5,247C 549.376,260.627 535.71,278.46 527.5,300.5C 492.873,272.452 455.207,267.619 414.5,286C 393.368,297.628 378.035,314.462 368.5,336.5 Z"/></g>
<g><path style="opacity:1" fill="#242128" d="M 341.5,73.5 C 352.921,77.2067 363.921,82.0401 374.5,88C 385.666,94.4154 396.666,101.082 407.5,108C 431.537,125.697 454.703,144.531 477,164.5C 485.591,175.118 492.591,186.785 498,199.5C 505.813,220.612 513.813,241.612 522,262.5C 522.711,264.367 522.211,265.867 520.5,267C 519.551,267.617 518.718,267.451 518,266.5C 517,264.5 516,262.5 515,260.5C 508.791,241.329 502.125,222.329 495,203.5C 486.265,184.219 473.765,167.719 457.5,154C 440.167,140.333 422.833,126.667 405.5,113C 385.096,99.795 363.763,88.1283 341.5,78C 340.272,76.5098 340.272,75.0098 341.5,73.5 Z"/></g>
<g><path style="opacity:1" fill="#242128" d="M 300.5,79.5 C 301.822,79.33 302.989,79.6634 304,80.5C 309.558,93.2786 313.225,106.612 315,120.5C 335.564,176.199 349.564,233.532 357,292.5C 359.033,301.931 361.866,311.098 365.5,320C 362.654,324.701 360.488,324.201 359,318.5C 356.928,312.952 355.262,307.285 354,301.5C 346.916,258.498 338.249,215.832 328,173.5C 322.395,156.017 316.395,138.683 310,121.5C 307.906,108.122 304.406,95.1221 299.5,82.5C 299.685,81.4163 300.018,80.4163 300.5,79.5 Z"/></g>
<g><path style="opacity:1" fill="#242128" d="M 248.5,94.5 C 249.833,94.5 251.167,94.5 252.5,94.5C 252.66,96.1992 252.494,97.8659 252,99.5C 241.999,112.497 234.332,126.831 229,142.5C 212.342,190.79 203.009,240.457 201,291.5C 200.625,318.502 200.792,345.502 201.5,372.5C 188.391,287.125 198.557,203.458 232,121.5C 237.009,112.138 242.509,103.138 248.5,94.5 Z"/></g>
<g><path style="opacity:0.938" fill="#000000" d="M 628.5,302.5 C 646.962,301.79 654.462,310.457 651,328.5C 645.458,339.017 636.958,342.517 625.5,339C 614.911,332.964 611.744,324.13 616,312.5C 618.887,307.434 623.054,304.101 628.5,302.5 Z"/></g>
<g><path style="opacity:0.932" fill="#000000" d="M 1342.5,302.5 C 1361.47,301.965 1368.97,310.965 1365,329.5C 1359.39,338.93 1351.22,342.097 1340.5,339C 1329.62,333.731 1326.12,325.231 1330,313.5C 1332.5,307.822 1336.67,304.155 1342.5,302.5 Z"/></g>
<g><path style="opacity:0.966" fill="#000000" d="M 552.5,311.5 C 564.5,311.5 576.5,311.5 588.5,311.5C 588.5,360.167 588.5,408.833 588.5,457.5C 576.5,457.5 564.5,457.5 552.5,457.5C 552.5,408.833 552.5,360.167 552.5,311.5 Z"/></g>
<g><path style="opacity:0.961" fill="#000000" d="M 470.5,317.5 C 496.356,315.447 518.356,323.447 536.5,341.5C 529.846,350.151 522.846,358.484 515.5,366.5C 508.616,358.778 500.282,353.278 490.5,350C 462.047,346.581 446.713,359.248 444.5,388C 446.574,416.082 461.574,429.082 489.5,427C 499.517,424.245 508.017,419.079 515,411.5C 522.717,418.715 529.883,426.381 536.5,434.5C 511.873,459.405 482.873,466.239 449.5,455C 418.357,439.56 404.19,414.394 407,379.5C 413.869,344.13 435.036,323.464 470.5,317.5 Z"/></g>
<g><path style="opacity:0.965" fill="#000000" d="M 1050.5,319.5 C 1062.83,319.5 1075.17,319.5 1087.5,319.5C 1087.5,338.167 1087.5,356.833 1087.5,375.5C 1105.5,375.5 1123.5,375.5 1141.5,375.5C 1141.5,356.833 1141.5,338.167 1141.5,319.5C 1153.83,319.5 1166.17,319.5 1178.5,319.5C 1178.5,365.5 1178.5,411.5 1178.5,457.5C 1166.17,457.5 1153.83,457.5 1141.5,457.5C 1141.5,440.167 1141.5,422.833 1141.5,405.5C 1123.5,405.5 1105.5,405.5 1087.5,405.5C 1087.5,422.833 1087.5,440.167 1087.5,457.5C 1075.17,457.5 1062.83,457.5 1050.5,457.5C 1050.5,411.5 1050.5,365.5 1050.5,319.5 Z"/></g>
<g><path style="opacity:0.951" fill="#221e1f" d="M 368.5,336.5 C 385.459,400.999 402.125,465.666 418.5,530.5C 416.139,530.674 413.806,531.007 411.5,531.5C 395.991,469.131 380.325,406.798 364.5,344.5C 365.285,341.596 366.619,338.93 368.5,336.5 Z"/></g>
<g><path style="opacity:0.968" fill="#000000" d="M 739.5,349.5 C 758.61,347.3 772.443,354.634 781,371.5C 793.544,351.982 811.044,345.482 833.5,352C 846.209,357.377 853.709,366.877 856,380.5C 856.5,406.165 856.667,431.831 856.5,457.5C 844.5,457.5 832.5,457.5 820.5,457.5C 820.667,436.164 820.5,414.831 820,393.5C 814.795,381.873 806.295,378.706 794.5,384C 790.509,386.989 787.676,390.822 786,395.5C 784.547,416.113 784.047,436.78 784.5,457.5C 772.5,457.5 760.5,457.5 748.5,457.5C 748.667,436.497 748.5,415.497 748,394.5C 745.936,386.1 740.603,381.766 732,381.5C 721.727,382.103 715.394,387.437 713,397.5C 712.5,417.497 712.333,437.497 712.5,457.5C 700.5,457.5 688.5,457.5 676.5,457.5C 676.5,422.167 676.5,386.833 676.5,351.5C 688.5,351.5 700.5,351.5 712.5,351.5C 712.334,356.179 712.501,360.845 713,365.5C 719.784,356.695 728.617,351.361 739.5,349.5 Z"/></g>
<g><path style="opacity:0.966" fill="#000000" d="M 918.5,349.5 C 932.593,348.258 945.927,350.758 958.5,357C 967.322,362.802 972.489,370.969 974,381.5C 974.5,406.831 974.667,432.164 974.5,457.5C 962.833,457.5 951.167,457.5 939.5,457.5C 939.665,454.15 939.498,450.817 939,447.5C 930.49,456.007 920.156,460.007 908,459.5C 880.927,458.427 868.927,444.427 872,417.5C 876.738,402.856 886.905,395.023 902.5,394C 914.829,393.5 927.162,393.333 939.5,393.5C 938.198,381.813 931.531,376.146 919.5,376.5C 908.567,377.483 898.234,380.483 888.5,385.5C 887.201,384.91 886.368,383.91 886,382.5C 883.296,375.594 880.462,368.761 877.5,362C 890.549,355.492 904.216,351.326 918.5,349.5 Z M 917.5,412.5 C 924.833,412.5 932.167,412.5 939.5,412.5C 939.934,426.74 932.934,434.407 918.5,435.5C 906.042,433.741 902.376,427.241 907.5,416C 910.776,414.308 914.109,413.141 917.5,412.5 Z"/></g>
<g><path style="opacity:0.965" fill="#000000" d="M 1253.5,349.5 C 1296.89,352.389 1316.06,375.389 1311,418.5C 1306.13,437.037 1294.63,449.537 1276.5,456C 1254.39,462.321 1233.72,459.321 1214.5,447C 1196.41,429.127 1191.24,407.96 1199,383.5C 1205.92,366.916 1218.08,356.416 1235.5,352C 1241.63,351.088 1247.63,350.255 1253.5,349.5 Z M 1250.5,378.5 C 1267.68,378.847 1276.35,387.681 1276.5,405C 1276.32,420.246 1268.82,429.08 1254,431.5C 1239.35,428.846 1231.85,420.012 1231.5,405C 1231.64,391.406 1237.97,382.572 1250.5,378.5 Z"/></g>
<g><path style="opacity:0.955" fill="#000000" d="M 1436.5,349.5 C 1458.78,348.885 1475.28,358.218 1486,377.5C 1490.65,389.405 1492.48,401.738 1491.5,414.5C 1467.17,414.5 1442.83,414.5 1418.5,414.5C 1420.97,424.419 1427.3,430.252 1437.5,432C 1448.78,432.961 1458.45,429.461 1466.5,421.5C 1473.03,427.196 1479.03,433.362 1484.5,440C 1476.01,449.586 1465.34,455.586 1452.5,458C 1433.77,461.497 1416.44,458.164 1400.5,448C 1384.25,432.508 1378.41,413.675 1383,391.5C 1387.09,372.486 1398.25,359.652 1416.5,353C 1423.23,351.384 1429.9,350.218 1436.5,349.5 Z M 1431.5,375.5 C 1446.58,373.272 1454.92,379.605 1456.5,394.5C 1443.5,394.5 1430.5,394.5 1417.5,394.5C 1419.18,385.839 1423.85,379.506 1431.5,375.5 Z"/></g>
<g><path style="opacity:0.962" fill="#000000" d="M 615.5,351.5 C 627.5,351.5 639.5,351.5 651.5,351.5C 651.5,386.833 651.5,422.167 651.5,457.5C 639.5,457.5 627.5,457.5 615.5,457.5C 615.5,422.167 615.5,386.833 615.5,351.5 Z"/></g>
<g><path style="opacity:0.964" fill="#000000" d="M 1329.5,351.5 C 1341.5,351.5 1353.5,351.5 1365.5,351.5C 1365.98,392.214 1365.48,432.881 1364,473.5C 1357.84,490.345 1345.68,498.345 1327.5,497.5C 1321.1,497.181 1314.77,496.348 1308.5,495C 1306.58,494.64 1304.91,493.806 1303.5,492.5C 1305.71,483.968 1308.38,475.634 1311.5,467.5C 1316.6,470.313 1321.6,470.146 1326.5,467C 1327.46,465.581 1328.29,464.081 1329,462.5C 1329.5,425.502 1329.67,388.502 1329.5,351.5 Z"/></g>
<g><path style="opacity:0.964" fill="#2a58fe" d="M 418.5,530.5 C 422.597,530.469 425.097,532.469 426,536.5C 428.822,546.123 431.489,555.789 434,565.5C 434.181,573.977 430.014,577.477 421.5,576C 419.43,575.052 417.93,573.552 417,571.5C 413.774,560.764 410.941,549.93 408.5,539C 408.548,536.078 409.548,533.578 411.5,531.5C 413.806,531.007 416.139,530.674 418.5,530.5 Z"/></g>
</svg>
