<?xml version="1.0" encoding="UTF-8"?>
<!DOCTYPE svg PUBLIC "-//W3C//DTD SVG 1.1//EN" "http://www.w3.org/Graphics/SVG/1.1/DTD/svg11.dtd">
<svg xmlns="http://www.w3.org/2000/svg" version="1.1" width="1545px" height="335px" style="shape-rendering:geometricPrecision; text-rendering:geometricPrecision; image-rendering:optimizeQuality; fill-rule:evenodd; clip-rule:evenodd" xmlns:xlink="http://www.w3.org/1999/xlink">
<g><path style="opacity:0.708" fill="#000000" d="M 155.5,38.5 C 154.791,39.404 153.791,39.7373 152.5,39.5C 151.343,35.2067 150.343,30.8734 149.5,26.5C 150.822,26.33 151.989,26.6634 153,27.5C 153.995,31.1451 154.828,34.8117 155.5,38.5 Z"/></g>
<g><path style="opacity:0.991" fill="#2a58fd" d="M 189.5,166.5 C 188.5,167.833 187.5,169.167 186.5,170.5C 167.561,156.405 148.227,155.905 128.5,169C 121.352,175.146 116.185,182.646 113,191.5C 96.0934,177.799 77.9267,175.965 58.5,186C 53.3246,190.009 48.658,194.509 44.5,199.5C 39.8268,143.317 59.4934,97.8174 103.5,63C 118.529,52.4857 134.862,44.6524 152.5,39.5C 153.791,39.7373 154.791,39.404 155.5,38.5C 219.719,25.7348 272.219,44.7348 313,95.5C 319.5,104.524 325,114.191 329.5,124.5C 329.167,124.833 328.833,125.167 328.5,125.5C 298.125,112.349 275.625,120.682 261,150.5C 242.37,136.168 223.203,135.335 203.5,148C 197.056,152.928 192.389,159.095 189.5,166.5 Z"/></g>
<g><path style="opacity:1" fill="#0b0919" d="M 157.5,50.5 C 159.411,50.5743 160.578,51.5743 161,53.5C 163.79,67.202 167.79,80.5353 173,93.5C 178.128,111.883 181.795,130.549 184,149.5C 184.862,152.949 186.028,156.283 187.5,159.5C 186.726,160.711 185.893,160.711 185,159.5C 180.384,136.753 175.384,114.087 170,91.5C 164.74,78.1167 160.573,64.45 157.5,50.5 Z"/></g>
<g><path style="opacity:1" fill="#0a0919" d="M 134.5,56.5 C 135.376,56.3691 136.043,56.7025 136.5,57.5C 131.028,64.7758 126.861,72.7758 124,81.5C 113.881,114.738 109.714,148.738 111.5,183.5C 106.99,147.231 110.823,111.898 123,77.5C 125.816,69.8631 129.649,62.8631 134.5,56.5 Z"/></g>
<g><path style="opacity:1" fill="#090817" d="M 176.5,47.5 C 186.691,51.2623 196.358,56.0956 205.5,62C 217.583,70.7452 229.083,80.2452 240,90.5C 248.712,104.557 254.545,119.557 257.5,135.5C 253.708,126.293 250.208,116.959 247,107.5C 242.413,98.1681 236.246,90.0015 228.5,83C 220.5,76.6667 212.5,70.3333 204.5,64C 195.818,58.6579 186.818,53.8245 177.5,49.5C 176.702,49.0431 176.369,48.3764 176.5,47.5 Z"/></g>
<g><path style="opacity:0.937" fill="#000000" d="M 973.5,134.5 C 991.155,132.989 999.322,140.989 998,158.5C 992.941,169.777 984.441,173.61 972.5,170C 961.055,162.982 958.555,153.482 965,141.5C 967.441,138.546 970.275,136.213 973.5,134.5 Z"/></g>
<g><path style="opacity:0.937" fill="#000000" d="M 1206.5,134.5 C 1224.16,132.989 1232.32,140.989 1231,158.5C 1225.94,169.777 1217.44,173.61 1205.5,170C 1194.06,162.982 1191.56,153.482 1198,141.5C 1200.44,138.546 1203.27,136.213 1206.5,134.5 Z"/></g>
<g><path style="opacity:0.96" fill="#000000" d="M 316.5,140.5 C 346.858,139.038 364.524,153.205 369.5,183C 369.167,183.833 368.833,184.667 368.5,185.5C 358.574,187.599 348.574,189.265 338.5,190.5C 338.672,182.509 336.005,175.676 330.5,170C 320.398,164.665 313.231,167.165 309,177.5C 308.333,203.5 308.333,229.5 309,255.5C 313.231,265.835 320.398,268.335 330.5,263C 336.005,257.324 338.672,250.491 338.5,242.5C 348.187,243.781 357.854,245.281 367.5,247C 368.916,266.773 360.249,280.773 341.5,289C 318.528,296.465 298.694,291.631 282,274.5C 278.863,269.892 276.53,264.892 275,259.5C 274.333,230.833 274.333,202.167 275,173.5C 281.96,153.779 295.794,142.779 316.5,140.5 Z"/></g>
<g><path style="opacity:0.96" fill="#000000" d="M 1062.5,140.5 C 1092.86,139.038 1110.52,153.205 1115.5,183C 1115.17,183.833 1114.83,184.667 1114.5,185.5C 1104.57,187.599 1094.57,189.265 1084.5,190.5C 1084.67,182.509 1082.01,175.676 1076.5,170C 1066.4,164.665 1059.23,167.165 1055,177.5C 1054.33,203.5 1054.33,229.5 1055,255.5C 1059.23,265.835 1066.4,268.335 1076.5,263C 1082.01,257.324 1084.67,250.491 1084.5,242.5C 1094.19,243.781 1103.85,245.281 1113.5,247C 1114.92,266.773 1106.25,280.773 1087.5,289C 1064.53,296.465 1044.69,291.631 1028,274.5C 1024.86,269.892 1022.53,264.892 1021,259.5C 1020.33,230.833 1020.33,202.167 1021,173.5C 1027.96,153.779 1041.79,142.779 1062.5,140.5 Z"/></g>
<g><path style="opacity:0.971" fill="#000000" d="M 1135.5,140.5 C 1146.83,140.5 1158.17,140.5 1169.5,140.5C 1169.5,189.833 1169.5,239.167 1169.5,288.5C 1158.17,288.5 1146.83,288.5 1135.5,288.5C 1135.5,239.167 1135.5,189.833 1135.5,140.5 Z"/></g>
<g><path style="opacity:0.97" fill="#000000" d="M 744.5,144.5 C 755.5,144.5 766.5,144.5 777.5,144.5C 783.205,169.988 789.539,195.321 796.5,220.5C 803.461,195.321 809.795,169.988 815.5,144.5C 826.5,144.5 837.5,144.5 848.5,144.5C 837.149,192.572 825.482,240.572 813.5,288.5C 802.167,288.5 790.833,288.5 779.5,288.5C 767.518,240.572 755.851,192.572 744.5,144.5 Z"/></g>
<g><path style="opacity:0.691" fill="#000000" d="M 189.5,166.5 C 196.833,195.833 204.166,225.166 211.5,254.5C 210.791,255.404 209.791,255.737 208.5,255.5C 201.011,227.21 193.677,198.876 186.5,170.5C 187.5,169.167 188.5,167.833 189.5,166.5 Z"/></g>
<g><path style="opacity:0.973" fill="#000000" d="M 540.5,180.5 C 555.16,180.333 565.993,186.667 573,199.5C 580.494,182.776 592.994,177.276 610.5,183C 622.697,189.544 629.863,199.71 632,213.5C 632.5,238.498 632.667,263.498 632.5,288.5C 621.167,288.5 609.833,288.5 598.5,288.5C 598.667,264.831 598.5,241.164 598,217.5C 595.272,206.715 589.606,204.715 581,211.5C 580.138,213.087 579.471,214.754 579,216.5C 577.596,240.471 577.096,264.471 577.5,288.5C 566.167,288.5 554.833,288.5 543.5,288.5C 543.667,264.498 543.5,240.498 543,216.5C 540.309,207.095 534.976,205.095 527,210.5C 525.725,212.717 524.725,215.051 524,217.5C 523.5,241.164 523.333,264.831 523.5,288.5C 512.167,288.5 500.833,288.5 489.5,288.5C 489.5,253.833 489.5,219.167 489.5,184.5C 500.833,184.5 512.167,184.5 523.5,184.5C 523.338,186.527 523.505,188.527 524,190.5C 528.443,185.205 533.943,181.871 540.5,180.5 Z"/></g>
<g><path style="opacity:0.959" fill="#000000" d="M 892.5,180.5 C 920.762,179.685 937.595,193.018 943,220.5C 943.5,243.164 943.667,265.831 943.5,288.5C 932.167,288.5 920.833,288.5 909.5,288.5C 909.662,286.473 909.495,284.473 909,282.5C 899.768,291.058 888.935,293.892 876.5,291C 860.807,286.61 852.807,276.276 852.5,260C 852.392,247.549 857.725,238.216 868.5,232C 872.95,229.739 877.617,228.072 882.5,227C 891.5,226.667 900.5,226.333 909.5,226C 909.54,218.784 906.873,212.784 901.5,208C 895.798,206.28 891.298,207.78 888,212.5C 886.377,215.327 885.21,218.327 884.5,221.5C 883.667,221.833 882.833,222.167 882,222.5C 872.83,220.777 863.663,219.111 854.5,217.5C 858.051,195.613 870.718,183.28 892.5,180.5 Z M 890.5,247.5 C 896.5,247.5 902.5,247.5 908.5,247.5C 907.954,262.235 900.621,268.068 886.5,265C 880.234,257.333 881.567,251.499 890.5,247.5 Z"/></g>
<g><path style="opacity:0.973" fill="#000000" d="M 1306.5,180.5 C 1321.16,180.333 1331.99,186.667 1339,199.5C 1346.49,182.776 1358.99,177.276 1376.5,183C 1388.7,189.544 1395.86,199.71 1398,213.5C 1398.5,238.498 1398.67,263.498 1398.5,288.5C 1387.17,288.5 1375.83,288.5 1364.5,288.5C 1364.67,264.831 1364.5,241.164 1364,217.5C 1361.27,206.715 1355.61,204.715 1347,211.5C 1346.14,213.087 1345.47,214.754 1345,216.5C 1343.6,240.471 1343.1,264.471 1343.5,288.5C 1332.17,288.5 1320.83,288.5 1309.5,288.5C 1309.67,264.498 1309.5,240.498 1309,216.5C 1306.31,207.095 1300.98,205.095 1293,210.5C 1291.72,212.717 1290.72,215.051 1290,217.5C 1289.5,241.164 1289.33,264.831 1289.5,288.5C 1278.17,288.5 1266.83,288.5 1255.5,288.5C 1255.5,253.833 1255.5,219.167 1255.5,184.5C 1266.83,184.5 1278.17,184.5 1289.5,184.5C 1289.34,186.527 1289.5,188.527 1290,190.5C 1294.44,185.205 1299.94,181.871 1306.5,180.5 Z"/></g>
<g><path style="opacity:0.959" fill="#000000" d="M 1454.5,180.5 C 1482.76,179.685 1499.6,193.018 1505,220.5C 1505.5,243.164 1505.67,265.831 1505.5,288.5C 1494.17,288.5 1482.83,288.5 1471.5,288.5C 1471.66,286.473 1471.5,284.473 1471,282.5C 1461.77,291.058 1450.93,293.892 1438.5,291C 1422.81,286.61 1414.81,276.276 1414.5,260C 1414.39,247.549 1419.73,238.216 1430.5,232C 1434.95,229.739 1439.62,228.072 1444.5,227C 1453.5,226.667 1462.5,226.333 1471.5,226C 1471.54,218.784 1468.87,212.784 1463.5,208C 1457.8,206.28 1453.3,207.78 1450,212.5C 1448.38,215.327 1447.21,218.327 1446.5,221.5C 1445.67,221.833 1444.83,222.167 1444,222.5C 1434.83,220.777 1425.66,219.111 1416.5,217.5C 1420.05,195.613 1432.72,183.28 1454.5,180.5 Z M 1452.5,247.5 C 1458.5,247.5 1464.5,247.5 1470.5,247.5C 1469.95,262.235 1462.62,268.068 1448.5,265C 1442.23,257.333 1443.57,251.499 1452.5,247.5 Z"/></g>
<g><path style="opacity:0.965" fill="#000000" d="M 415.5,181.5 C 445.308,177.467 464.142,189.8 472,218.5C 472.667,230.5 472.667,242.5 472,254.5C 464.158,283.353 445.325,295.52 415.5,291C 396.487,285.986 384.987,273.82 381,254.5C 380.333,242.5 380.333,230.5 381,218.5C 385.173,199.165 396.673,186.832 415.5,181.5 Z M 422.5,207.5 C 432.022,206.516 437.189,210.849 438,220.5C 438.915,232.558 438.581,244.558 437,256.5C 434.997,264.087 430.164,266.92 422.5,265C 417.849,262.209 415.349,258.042 415,252.5C 414.333,241.833 414.333,231.167 415,220.5C 415.478,214.863 417.978,210.53 422.5,207.5 Z"/></g>
<g><path style="opacity:0.965" fill="#000000" d="M 681.5,181.5 C 711.308,177.467 730.142,189.8 738,218.5C 738.667,230.5 738.667,242.5 738,254.5C 730.158,283.353 711.325,295.52 681.5,291C 662.487,285.986 650.987,273.82 647,254.5C 646.333,242.5 646.333,230.5 647,218.5C 651.173,199.165 662.673,186.832 681.5,181.5 Z M 688.5,207.5 C 698.022,206.516 703.189,210.849 704,220.5C 704.915,232.558 704.581,244.558 703,256.5C 700.997,264.087 696.164,266.92 688.5,265C 683.849,262.209 681.349,258.042 681,252.5C 680.333,241.833 680.333,231.167 681,220.5C 681.478,214.863 683.978,210.53 688.5,207.5 Z"/></g>
<g><path style="opacity:0.977" fill="#000000" d="M 963.5,184.5 C 974.833,184.5 986.167,184.5 997.5,184.5C 997.5,219.167 997.5,253.833 997.5,288.5C 986.167,288.5 974.833,288.5 963.5,288.5C 963.5,253.833 963.5,219.167 963.5,184.5 Z"/></g>
<g><path style="opacity:0.977" fill="#000000" d="M 1196.5,184.5 C 1207.83,184.5 1219.17,184.5 1230.5,184.5C 1230.5,219.167 1230.5,253.833 1230.5,288.5C 1219.17,288.5 1207.83,288.5 1196.5,288.5C 1196.5,253.833 1196.5,219.167 1196.5,184.5 Z"/></g>
<g><path style="opacity:0.899" fill="#2a57fe" d="M 211.5,254.5 C 214.7,256.521 216.534,259.521 217,263.5C 217.679,266.55 218.512,269.55 219.5,272.5C 218.034,276.423 215.368,277.423 211.5,275.5C 209.448,270.13 207.782,264.63 206.5,259C 206.387,257.301 207.053,256.134 208.5,255.5C 209.791,255.737 210.791,255.404 211.5,254.5 Z"/></g>
</svg>
